Coordinates
version=1
nRows=12
nColumns=24
inDegrees=yes

Units are S.I. units (second, meters, Newtons, ...)
Angles are in degrees.

endheader
time	pelvis_tilt	pelvis_list	pelvis_rotation	pelvis_tx	pelvis_ty	pelvis_tz	hip_flexion_r	hip_adduction_r	hip_rotation_r	knee_angle_r	ankle_angle_r	subtalar_angle_r	mtp_angle_r	hip_flexion_l	hip_adduction_l	hip_rotation_l	knee_angle_l	ankle_angle_l	subtalar_angle_l	mtp_angle_l	lumbar_extension	lumbar_bending	lumbar_rotation
      4.21500000	     -3.94477859	     -7.35903777	      1.54867174	     -0.01228707	     -0.01628825	     -0.08583672	     10.40904392	     16.12080501	     10.43152796	    -17.93709017	     -0.07267981	     -5.81284647	      8.95611533	     30.40668117	     -7.95289275	     -5.55078798	    -67.51779316	     -5.11769558	    -10.38940856	    -19.67720320	      6.47034883	      5.95192719	     -1.25831773
      4.22000000	     -3.86926496	     -7.18690805	      1.45450800	     -0.00663315	     -0.01565143	     -0.08545083	      9.57660920	     15.97781147	     10.79341878	    -17.46995578	      0.06281113	     -5.87983596	      8.77077360	     30.99823815	     -7.71757369	     -5.75732577	    -66.71834836	     -4.36127635	    -10.12695339	    -19.33277155	      6.31514689	      5.79916334	     -0.99169683
      4.22500000	     -3.85369003	     -6.99621304	      1.38168289	     -0.00103958	     -0.01514322	     -0.08512705	      8.84182332	     15.80119021	     11.13055438	    -17.04622938	      0.24099089	     -5.92889316	      8.64319081	     31.63938800	     -7.44200915	     -5.95296944	    -65.84284810	     -3.67382848	     -9.81608481	    -18.91700603	      6.21751976	      5.62435740	     -0.78485954
      4.23000000	     -3.85435042	     -6.80062590	      1.30314973	      0.00452835	     -0.01470662	     -0.08479281	      8.14259900	     15.61653175	     11.45321673	    -16.64679292	      0.42475123	     -5.96545162	      8.54601911	     32.26838012	     -7.17521372	     -6.17242568	    -64.89203247	     -3.01352603	     -9.39885919	    -18.42824094	      6.13154361	      5.44439861	     -0.57146538
      4.23500000	     -3.86009303	     -6.60504252	      1.22442892	      0.01007684	     -0.01432503	     -0.08447159	      7.46105491	     15.42838565	     11.77711675	    -16.26318006	      0.60171089	     -6.00751785	      8.44800714	     32.87138608	     -6.91500425	     -6.40093425	    -63.86275010	     -2.38905672	     -8.88867630	    -17.85916593	      6.05016724	      5.26799101	     -0.35124407
      4.24000000	     -3.89081936	     -6.40200731	      1.16591851	      0.01561309	     -0.01403815	     -0.08420549	      6.83123312	     15.22584747	     12.06886530	    -15.91685734	      0.79848024	     -6.06655777	      8.37126236	     33.47648686	     -6.63995761	     -6.63989754	    -62.76216719	     -1.79074299	     -8.32884969	    -17.29477841	      5.99435705	      5.08592736	     -0.16124221
      4.24500000	     -3.91076864	     -6.20945101	      1.08365004	      0.02111621	     -0.01377432	     -0.08389140	      6.19115990	     15.03774426	     12.38005140	    -15.56524647	      0.96781068	     -6.12395694	      8.26595727	     34.03058887	     -6.39975325	     -6.89139202	    -61.58252410	     -1.21958225	     -7.65081443	    -16.63909216	      5.91653596	      4.90931784	      0.06822613
      4.25000000	     -3.95409061	     -6.01341502	      1.02934131	      0.02660325	     -0.01360958	     -0.08364141	      5.60149034	     14.84065462	     12.65570197	    -15.25108457	      1.15735523	     -6.20235613	      8.16996105	     34.58553259	     -6.14398285	     -7.15078717	    -60.33355361	     -0.67821550	     -6.96247022	    -16.01302185	      5.86484075	      4.72828129	      0.25940987
      4.25500000	     -4.00387774	     -5.82508924	      0.97129067	      0.03208562	     -0.01349267	     -0.08342565	      5.03232886	     14.64924748	     12.91468846	    -14.95759409	      1.34029094	     -6.28554573	      8.06745938	     35.10856358	     -5.89495529	     -7.40879406	    -59.00751705	     -0.17547604	     -6.23005626	    -15.39958879	      5.81993095	      4.56569196	      0.45511531
      4.26000000	     -4.06662097	     -5.63860573	      0.92731727	      0.03752757	     -0.01344916	     -0.08325099	      4.49857007	     14.45609576	     13.15175757	    -14.69282340	      1.52906109	     -6.37150237	      7.97465105	     35.61540849	     -5.64391895	     -7.67694482	    -57.61189338	      0.31080817	     -5.46999434	    -14.83484005	      5.78378426	      4.39955656	      0.63609026
      4.26500000	     -4.13223225	     -5.46235847	      0.87838499	      0.04294829	     -0.01346233	     -0.08309279	      3.98413365	     14.27469328	     13.37020025	    -14.45187558	      1.71007948	     -6.45881944	      7.88033724	     36.08726588	     -5.40437884	     -7.94957379	    -56.14705419	      0.77180639	     -4.69492376	    -14.30127822	      5.73897670	      4.24681003	      0.82309419
      4.27000000	     -4.21379071	     -5.29801101	      0.84283592	      0.04835059	     -0.01354595	     -0.08298462	      3.50441119	     14.10030887	     13.55715011	    -14.23323602	      1.89957897	     -6.53435279	      7.81782505	     36.54413840	     -5.17257134	     -8.23420613	    -54.61774976	      1.21249572	     -3.90667032	    -13.86522658	      5.71690842	      4.10764814	      0.98431514
